<?xml version="1.0" encoding="UTF-8" standalone="no"?>
<svg
   xmlns:dc="http://purl.org/dc/elements/1.1/"
   xmlns:cc="http://creativecommons.org/ns#"
   xmlns:rdf="http://www.w3.org/1999/02/22-rdf-syntax-ns#"
   xmlns:svg="http://www.w3.org/2000/svg"
   xmlns="http://www.w3.org/2000/svg"
   xmlns:sodipodi="http://sodipodi.sourceforge.net/DTD/sodipodi-0.dtd"
   xmlns:inkscape="http://www.inkscape.org/namespaces/inkscape"
   inkscape:export-ydpi="768"
   inkscape:export-xdpi="768"
   inkscape:export-filename="D:\export eco adnan\solid\png\8 - Solar Energy.png"
   sodipodi:docname="9 - Windmill.svg"
   inkscape:version="1.0 (4035a4fb49, 2020-05-01)"
   id="svg979"
   version="1.1"
   viewBox="0 0 16.933334 16.933333"
   height="48pt"
   width="48pt">
  <defs
     id="defs973" />
  <sodipodi:namedview
     inkscape:snap-nodes="false"
     inkscape:object-paths="true"
     inkscape:bbox-nodes="true"
     inkscape:snap-bbox="true"
     inkscape:document-rotation="0"
     inkscape:window-maximized="1"
     inkscape:window-y="-8"
     inkscape:window-x="-8"
     inkscape:window-height="706"
     inkscape:window-width="1366"
     units="pt"
     showgrid="false"
     inkscape:current-layer="layer1"
     inkscape:document-units="pt"
     inkscape:cy="32"
     inkscape:cx="32"
     inkscape:zoom="8.546875"
     inkscape:pageshadow="2"
     inkscape:pageopacity="0.0"
     borderopacity="1.0"
     bordercolor="#666666"
     pagecolor="#ffffff"
     id="base">
    <inkscape:grid
       id="grid1526"
       type="xygrid" />
    <sodipodi:guide
       inkscape:locked="false"
       id="guide1528"
       orientation="56.666615,0"
       position="0.97013909,15.963209" />
    <sodipodi:guide
       inkscape:locked="false"
       id="guide1530"
       orientation="0,56.666667"
       position="0.97013909,0.97016731" />
    <sodipodi:guide
       inkscape:locked="false"
       id="guide1532"
       orientation="-56.666615,0"
       position="15.963195,0.97016731" />
    <sodipodi:guide
       inkscape:locked="false"
       id="guide1534"
       orientation="0,-56.666667"
       position="15.963195,15.963209" />
  </sodipodi:namedview>
  <metadata
     id="metadata976">
    <rdf:RDF>
      <cc:Work
         rdf:about="">
        <dc:format>image/svg+xml</dc:format>
        <dc:type
           rdf:resource="http://purl.org/dc/dcmitype/StillImage" />
        <dc:title></dc:title>
      </cc:Work>
    </rdf:RDF>
  </metadata>
  <g
     transform="translate(0,-280.06668)"
     id="layer1"
     inkscape:groupmode="layer"
     inkscape:label="Layer 1">
    <path
       id="path935"
       style="color:#000000;font-style:normal;font-variant:normal;font-weight:normal;font-stretch:normal;font-size:medium;line-height:normal;font-family:sans-serif;font-variant-ligatures:normal;font-variant-position:normal;font-variant-caps:normal;font-variant-numeric:normal;font-variant-alternates:normal;font-variant-east-asian:normal;font-feature-settings:normal;font-variation-settings:normal;text-indent:0;text-align:start;text-decoration:none;text-decoration-line:none;text-decoration-style:solid;text-decoration-color:#000000;letter-spacing:normal;word-spacing:normal;text-transform:none;writing-mode:lr-tb;direction:ltr;text-orientation:mixed;dominant-baseline:auto;baseline-shift:baseline;text-anchor:start;white-space:normal;shape-padding:0;shape-margin:0;inline-size:0;clip-rule:nonzero;display:inline;overflow:visible;visibility:visible;isolation:auto;mix-blend-mode:normal;color-interpolation:sRGB;color-interpolation-filters:linearRGB;solid-color:#000000;solid-opacity:1;vector-effect:none;fill:#000000;fill-opacity:1;fill-rule:nonzero;stroke:none;stroke-width:0.529166;stroke-linecap:round;stroke-linejoin:round;stroke-miterlimit:4;stroke-dasharray:none;stroke-dashoffset:0;stroke-opacity:1;color-rendering:auto;image-rendering:auto;shape-rendering:auto;text-rendering:auto;enable-background:accumulate;stop-color:#000000"
       d="m 7.3122024,281.21262 c -0.1196924,0.0276 -0.1561059,0.092 -0.2134188,0.12734 -0.08221,0.12712 -0.022033,0.20387 -0.012499,0.2489 6.442e-4,0.004 0.00161,0.007 0.00258,0.011 l 0.8355136,3.9643 c 0.2151132,-0.0768 0.445682,-0.12078 0.6864076,-0.12078 0.3112616,0 0.6053475,0.072 0.870123,0.19693 0.4575008,-0.59819 0.4598427,-1.43812 -0.014464,-2.03468 l -1.4923531,-1.87865 c 1.0636086,-0.1658 2.2307293,0.0611 3.1313003,0.48759 0.16086,0.0772 0.353813,0.009 0.430341,-0.15226 0.07557,-0.16105 0.0063,-0.35288 -0.154772,-0.42845 -1.31422,-0.56181 -2.7253518,-0.78178 -4.0687565,-0.42091 z m 1.2985745,4.81554 c -0.7964815,0 -1.4508407,0.65384 -1.4508278,1.45021 3.2e-6,0.79637 0.6543559,1.44832 1.4508278,1.44832 0.7964718,0 1.4483091,-0.65195 1.4483151,-1.44832 10e-6,-0.79637 -0.6518305,-1.45021 -1.4483151,-1.45021 z m -6.1852144,1.10543 c -0.1781514,-7e-4 -0.3230386,0.14335 -0.3233852,0.32151 -1.3e-6,1.21045 0.4091328,2.33558 0.9701559,3.28607 0.029955,0.0508 0.051906,0.12791 0.201006,0.1555 0.1490996,0.0276 0.2075528,-0.0217 0.2412895,-0.0416 0.00578,-0.004 0.011444,-0.007 0.016985,-0.011 0.0019,-10e-4 0.00379,-0.002 0.00566,-0.004 l 3.5081652,-2.02022 c -0.3650376,-0.52604 -0.4836061,-0.98098 -0.4794152,-1.52193 -0.3308824,-0.12952 -0.6635188,-0.0795 -0.9751905,-0.0246 -0.348619,0.1047 -0.6629869,0.32807 -0.8751533,0.64928 l -1.3363238,2.02526 c -0.3800722,-0.76384 -0.6323012,-1.6114 -0.6323003,-2.49334 -3.543e-4,-0.17742 -0.1440831,-0.32115 -0.3214978,-0.32151 z m 8.2117215,0.66879 c -0.08135,0.53583 -0.3706,1.0043 -0.7832967,1.3206 l 0.097517,0.20321 c 0.2788267,0.58138 0.9409337,0.88362 1.5628207,0.71346 l 2.515358,-0.68955 c -0.359313,1.0797 -0.997747,2.00429 -1.876139,2.69153 -0.139667,0.10969 -0.164152,0.31181 -0.05474,0.45172 0.109781,0.14007 0.312344,0.16459 0.452364,0.0548 1.138734,-0.89092 1.919709,-2.14193 2.26118,-3.58555 0.02265,-0.0969 0.04937,-0.18882 -0.08118,-0.2856 -0.130551,-0.0968 -0.19074,-0.10872 -0.200694,-0.11018 z m -3.0526555,1.46657 -0.2428548,3.55283 h 2.5354905 l -0.2409639,-3.55221 c -0.3023098,0.17574 -0.6519463,0.27746 -1.0255234,0.27746 -0.3736351,0 -0.7234586,-0.10227 -1.0261484,-0.27808 z m -0.5863743,4.19708 v 0.63733 h 3.2225298 v -0.63733 z m -0.3208674,1.28159 v 0.63733 H 6.1331687 c -0.1781513,-7.1e-4 -0.3230386,0.14334 -0.3233852,0.3215 -7.087e-4,0.17888 0.1444952,0.32408 0.3233852,0.32339 h 5.1288643 c 0.17889,7e-4 0.324085,-0.14451 0.323386,-0.32339 -3.21e-4,-0.17816 -0.145234,-0.3222 -0.323386,-0.3215 h -0.720382 v -0.63733 z"
       sodipodi:nodetypes="cccccsccccccccsssccscccccccccccccccccccccccccccsccccccccccccccccccc" />
  </g>
</svg>
